<svg xmlns="http://www.w3.org/2000/svg" width="16" height="13" viewBox="0 0 16 13" fill="none">
  <path d="M1 3.16667L6.44327 6.97693C6.88407 7.28553 7.10447 7.4398 7.3442 7.49953C7.55593 7.55233 7.7774 7.55233 7.98913 7.49953C8.22887 7.4398 8.44927 7.28553 8.89007 6.97693L14.3333 3.16667M4.2 11.8333H11.1333C12.2535 11.8333 12.8135 11.8333 13.2413 11.6153C13.6177 11.4236 13.9236 11.1177 14.1153 10.7413C14.3333 10.3135 14.3333 9.75347 14.3333 8.63333V4.36667C14.3333 3.24656 14.3333 2.68651 14.1153 2.25869C13.9236 1.88236 13.6177 1.5764 13.2413 1.38465C12.8135 1.16667 12.2535 1.16667 11.1333 1.16667H4.2C3.07989 1.16667 2.51984 1.16667 2.09202 1.38465C1.71569 1.5764 1.40973 1.88236 1.21799 2.25869C1 2.68651 1 3.24656 1 4.36667V8.63333C1 9.75347 1 10.3135 1.21799 10.7413C1.40973 11.1177 1.71569 11.4236 2.09202 11.6153C2.51984 11.8333 3.07989 11.8333 4.2 11.8333Z" stroke="#CD0707" stroke-width="2" stroke-linecap="round" stroke-linejoin="round"/>
</svg>