<svg xmlns="http://www.w3.org/2000/svg" width="16" height="16" viewBox="0 0 16 16" fill="none">
  <g clip-path="url(#clip0_35_14)">
    <path d="M8.64877 3.92698C8.64877 4.08049 8.64877 4.58085 8.64877 5.29171H11.0928L10.8278 7.47043H8.64877C8.64877 10.8304 8.64877 15.333 8.64877 15.333H5.7564C5.7564 15.333 5.7564 10.89 5.7564 7.47043H4.24928V5.29171H5.7564C5.7564 4.42769 5.7564 3.8133 5.7564 3.64224C5.7564 2.8272 5.695 2.44048 6.04131 1.8089C6.38781 1.17735 7.36515 0.342563 9.05555 0.362661C10.7464 0.383491 11.4591 0.546147 11.4591 0.546147L11.0928 2.86813C11.0928 2.86813 10.0131 2.58304 9.4832 2.68464C8.95395 2.78627 8.64877 3.11229 8.64877 3.92698Z" fill="white"/>
  </g>
  <defs>
    <clipPath id="clip0_35_14">
      <rect width="15" height="15" fill="white" transform="translate(0.354172 0.347656)"/>
    </clipPath>
  </defs>
</svg>