<svg xmlns="http://www.w3.org/2000/svg" width="16" height="16" viewBox="0 0 16 16" fill="none">
  <g clip-path="url(#clip0_35_19)">
    <path fill-rule="evenodd" clip-rule="evenodd" d="M7.85417 11.5977C9.92523 11.5977 11.6042 9.91872 11.6042 7.84766C11.6042 5.77659 9.92523 4.09766 7.85417 4.09766C5.7831 4.09766 4.10417 5.77659 4.10417 7.84766C4.10417 9.91872 5.7831 11.5977 7.85417 11.5977ZM7.85417 10.3477C9.23486 10.3477 10.3542 9.22834 10.3542 7.84766C10.3542 6.46694 9.23486 5.34766 7.85417 5.34766C6.47346 5.34766 5.35417 6.46694 5.35417 7.84766C5.35417 9.22834 6.47346 10.3477 7.85417 10.3477Z" fill="white"/>
    <path d="M11.6042 3.47266C11.259 3.47266 10.9792 3.75248 10.9792 4.09766C10.9792 4.44283 11.259 4.72266 11.6042 4.72266C11.9494 4.72266 12.2292 4.44283 12.2292 4.09766C12.2292 3.75248 11.9494 3.47266 11.6042 3.47266Z" fill="white"/>
    <path fill-rule="evenodd" clip-rule="evenodd" d="M1.3879 3.02019C0.979172 3.82236 0.979172 4.87246 0.979172 6.97266V8.72266C0.979172 10.8228 0.979172 11.873 1.3879 12.6751C1.74742 13.3807 2.3211 13.9544 3.02671 14.3139C3.82888 14.7227 4.87898 14.7227 6.97917 14.7227H8.72917C10.8294 14.7227 11.8795 14.7227 12.6816 14.3139C13.3872 13.9544 13.9609 13.3807 14.3204 12.6751C14.7292 11.873 14.7292 10.8228 14.7292 8.72266V6.97266C14.7292 4.87246 14.7292 3.82236 14.3204 3.02019C13.9609 2.31458 13.3872 1.74091 12.6816 1.38138C11.8795 0.972656 10.8294 0.972656 8.72917 0.972656H6.97917C4.87898 0.972656 3.82888 0.972656 3.02671 1.38138C2.3211 1.74091 1.74742 2.31458 1.3879 3.02019ZM8.72917 2.22266H6.97917C5.90845 2.22266 5.18058 2.22363 4.61797 2.26959C4.06995 2.31437 3.7897 2.39553 3.5942 2.49514C3.12379 2.73483 2.74134 3.11727 2.50165 3.58768C2.40204 3.78318 2.32088 4.06343 2.27611 4.61146C2.23015 5.17406 2.22917 5.90193 2.22917 6.97266V8.72266C2.22917 9.79341 2.23015 10.5212 2.27611 11.0838C2.32088 11.6319 2.40204 11.9122 2.50165 12.1077C2.74134 12.578 3.12379 12.9605 3.5942 13.2002C3.7897 13.2998 4.06995 13.381 4.61797 13.4257C5.18058 13.4717 5.90845 13.4727 6.97917 13.4727H8.72917C9.79992 13.4727 10.5277 13.4717 11.0904 13.4257C11.6384 13.381 11.9187 13.2998 12.1142 13.2002C12.5845 12.9605 12.967 12.578 13.2067 12.1077C13.3063 11.9122 13.3875 11.6319 13.4322 11.0838C13.4782 10.5212 13.4792 9.79341 13.4792 8.72266V6.97266C13.4792 5.90193 13.4782 5.17406 13.4322 4.61146C13.3875 4.06343 13.3063 3.78318 13.2067 3.58768C12.967 3.11727 12.5845 2.73483 12.1142 2.49514C11.9187 2.39553 11.6384 2.31437 11.0904 2.26959C10.5277 2.22363 9.79992 2.22266 8.72917 2.22266Z" fill="white"/>
  </g>
  <defs>
    <clipPath id="clip0_35_19">
      <rect width="15" height="15" fill="white" transform="translate(0.354172 0.347656)"/>
    </clipPath>
  </defs>
</svg>