<svg xmlns="http://www.w3.org/2000/svg" width="16" height="16" viewBox="0 0 16 16" fill="none">
  <g clip-path="url(#clip0_35_23)">
    <path fill-rule="evenodd" clip-rule="evenodd" d="M4.09039 5.04102V15.3477H0.354468V5.04102H4.09039ZM9.72205 5.02197V5.62929C10.2674 5.27729 10.8963 5.07266 11.85 5.07266C14.9561 5.07266 15.3541 7.48411 15.3541 9.58486V15.3474H11.5994V9.87209C11.5994 8.95126 11.2699 8.77666 10.6607 8.77666C10.0816 8.77666 9.72205 8.96065 9.72205 9.87209V15.3474H5.96737V5.02197H9.72205ZM2.22215 0.347656C3.25281 0.347656 4.09011 1.18589 4.09011 2.21562C4.09011 3.24534 3.25281 4.08358 2.22214 4.08358C1.19243 4.08358 0.354187 3.24534 0.354187 2.21561C0.354187 1.1859 1.19242 0.347656 2.22215 0.347656Z" fill="white"/>
  </g>
  <defs>
    <clipPath id="clip0_35_23">
      <rect width="15" height="15" fill="white" transform="translate(0.354187 0.347656)"/>
    </clipPath>
  </defs>
</svg>