<svg xmlns="http://www.w3.org/2000/svg" width="16" height="16" viewBox="0 0 16 16" fill="none">
  <path fill-rule="evenodd" clip-rule="evenodd" d="M8.32375 12.7186C8.24369 12.7773 8.16906 12.8307 8.10088 12.8785C8.02813 12.8302 7.94744 12.7747 7.85994 12.7122C7.44738 12.417 6.91231 11.9837 6.38536 11.4432C5.30451 10.3347 4.39575 8.91959 4.39575 7.41016C4.39575 5.33909 6.07468 3.66016 8.14575 3.66016C10.2168 3.66016 11.8958 5.33909 11.8958 7.41016C11.8958 8.90341 10.9469 10.3144 9.82656 11.4347C9.283 11.9783 8.736 12.4163 8.32375 12.7186ZM12.8333 7.41016C12.8333 11.1602 8.14575 13.9727 8.14575 13.9727C7.91138 13.9727 3.45825 11.1602 3.45825 7.41016C3.45825 4.82132 5.55691 2.72266 8.14575 2.72266C10.7346 2.72266 12.8333 4.82132 12.8333 7.41016ZM9.08325 7.41016C9.08325 7.92791 8.6635 8.34766 8.14575 8.34766C7.628 8.34766 7.20825 7.92791 7.20825 7.41016C7.20825 6.89239 7.628 6.47266 8.14575 6.47266C8.6635 6.47266 9.08325 6.89239 9.08325 7.41016ZM10.0208 7.41016C10.0208 8.44572 9.18131 9.28516 8.14575 9.28516C7.11019 9.28516 6.27075 8.44572 6.27075 7.41016C6.27075 6.37462 7.11019 5.53516 8.14575 5.53516C9.18131 5.53516 10.0208 6.37462 10.0208 7.41016Z" fill="#CD0707"/>
</svg>