<svg xmlns="http://www.w3.org/2000/svg" width="15" height="15" viewBox="0 0 15 15" fill="none">
  <path d="M8.89239 4.22861C9.47637 4.34204 10.013 4.62638 10.4338 5.04524C10.8545 5.46409 11.1402 5.9984 11.2541 6.5798M8.89239 1.84766C10.1057 1.98185 11.2371 2.52276 12.1009 3.38159C12.9647 4.24042 13.5094 5.36611 13.6458 6.57384M6.60653 8.90902C5.88812 8.19378 5.32083 7.38503 4.9047 6.5222C4.8689 6.44798 4.85101 6.41086 4.83725 6.3639C4.78839 6.19703 4.82349 5.99211 4.92514 5.85079C4.95374 5.81102 4.98792 5.77699 5.05627 5.70895C5.2653 5.50085 5.36982 5.3968 5.43814 5.29217C5.69584 4.8976 5.69584 4.38892 5.43814 3.99434C5.36982 3.88971 5.2653 3.78566 5.05627 3.57756L4.93975 3.46157C4.622 3.14523 4.46312 2.98707 4.29249 2.90115C3.95314 2.73027 3.55239 2.73027 3.21304 2.90115C3.04241 2.98707 2.88353 3.14523 2.56577 3.46157L2.47153 3.5554C2.15486 3.87065 1.99653 4.02827 1.8756 4.24258C1.74142 4.48038 1.64494 4.84972 1.64576 5.12248C1.64649 5.36827 1.69438 5.53627 1.79018 5.87224C2.30496 7.67783 3.27624 9.38164 4.70403 10.803C6.13182 12.2244 7.84324 13.1914 9.65693 13.7039C9.99439 13.7993 10.1632 13.8469 10.4101 13.8477C10.684 13.8485 11.055 13.7524 11.2939 13.6188C11.5092 13.4984 11.6675 13.3408 11.9842 13.0256L12.0784 12.9318C12.3962 12.6154 12.555 12.4572 12.6413 12.2874C12.813 11.9496 12.813 11.5506 12.6413 11.2127C12.555 11.0429 12.3962 10.8847 12.0784 10.5684L11.9619 10.4524C11.7529 10.2443 11.6484 10.1402 11.5433 10.0722C11.1469 9.81563 10.6359 9.81563 10.2396 10.0722C10.1345 10.1402 10.03 10.2443 9.82094 10.4524C9.7526 10.5204 9.71846 10.5544 9.67846 10.5829C9.53652 10.6841 9.33072 10.7191 9.16306 10.6704C9.11589 10.6567 9.07864 10.6389 9.00408 10.6032C8.13735 10.189 7.32498 9.6242 6.60653 8.90902Z" stroke="#CD0707" stroke-width="2" stroke-linecap="round" stroke-linejoin="round"/>
</svg>