<svg xmlns="http://www.w3.org/2000/svg" width="16" height="16" viewBox="0 0 16 16" fill="none">
  <g clip-path="url(#clip0_35_17)">
    <path d="M15.3542 3.19111C14.8042 3.43682 14.2075 3.60063 13.5874 3.67668C14.2251 3.29641 14.7106 2.69384 14.9388 1.97426C14.3421 2.32528 13.6869 2.58269 12.9848 2.72309C12.4232 2.12637 11.6217 1.75195 10.7383 1.75195C9.04177 1.75195 7.66111 3.13261 7.66111 4.82918C7.66111 5.06904 7.68452 5.30305 7.74302 5.5312C5.18647 5.4025 2.91657 4.1798 1.40136 2.31358C1.1381 2.76989 0.985996 3.29642 0.985996 3.86389C0.985996 4.92863 1.53007 5.87052 2.35495 6.42629C1.85183 6.40874 1.37796 6.26833 0.962596 6.04017V6.07528C0.962596 7.56709 2.02149 8.81319 3.4314 9.094C3.17399 9.1642 2.89902 9.20515 2.61821 9.20515C2.4193 9.20515 2.22625 9.1876 2.03904 9.1525C2.43101 10.3752 3.56595 11.2644 4.9115 11.2878C3.85846 12.1127 2.53046 12.6041 1.0913 12.6041C0.845592 12.6041 0.599882 12.5924 0.354172 12.5632C1.71728 13.4349 3.33194 13.9438 5.06946 13.9438C10.7325 13.9438 13.8273 9.25195 13.8273 5.18604C13.8273 5.05148 13.8273 4.91693 13.8214 4.78822C14.424 4.34946 14.9447 3.81124 15.3542 3.19111Z" fill="white"/>
  </g>
  <defs>
    <clipPath id="clip0_35_17">
      <rect width="15" height="15" fill="white" transform="translate(0.354172 0.347656)"/>
    </clipPath>
  </defs>
</svg>